<svg class="icon" height="2rem" version="1.1"
     viewBox="0 0 1024 1024" width="2rem" xmlns="http://www.w3.org/2000/svg">
    <path d="M512 233.813333a171.776 171.776 0 0 0-171.946667 171.946667 171.477333 171.477333 0 0 0 165.717334 171.52l6.826666-0.341333 5.632 0.341333a171.776 171.776 0 0 0 165.717334-171.349333A172.074667 172.074667 0 0 0 512 233.813333z m0 64a108.032 108.032 0 0 1 107.946667 107.946667l-0.256 7.253333a107.690667 107.690667 0 0 1-96.512 99.84l-5.802667 0.341334-1.834667-0.170667a74.88 74.88 0 0 0-6.357333 0l-2.56 0.170667 1.365333 0.085333A107.477333 107.477333 0 0 1 404.053333 405.76c0-59.733333 48.128-107.946667 107.946667-107.946667zM282.24 690.133333c-52.309333 35.2-84.181333 82.346667-89.6 133.376a32 32 0 0 0 10.154667 26.965334A455.765333 455.765333 0 0 0 512 970.666667c116.138667 0 225.194667-43.264 309.205333-120.192a32 32 0 0 0 10.197334-26.965334c-5.12-47.872-33.450667-92.245333-80-126.592l-9.557334-6.698666c-126.805333-84.864-331.946667-84.864-459.605333-0.085334z m424.021333 53.248l8.234667 5.888c24.106667 17.962667 40.32 38.528 48.213333 59.690667l1.92 5.930667-7.893333 6.528A391.466667 391.466667 0 0 1 512 906.666667l-14.250667-0.256a391.253333 391.253333 0 0 1-230.485333-84.992l-7.893333-6.528 1.962666-5.973334c8.746667-23.466667 27.733333-46.250667 56.490667-65.578666 105.984-70.4 283.136-70.4 388.437333 0.042666z"
          fill="var(--bg-000)"></path>
    <path
            d="M512 53.333333C258.688 53.333333 53.333333 258.688 53.333333 512S258.688 970.666667 512 970.666667 970.666667 765.312 970.666667 512 765.312 53.333333 512 53.333333z m0 64a394.666667 394.666667 0 1 1 0 789.333334 394.666667 394.666667 0 0 1 0-789.333334z"
            fill="var(--bg-000)"></path>
</svg>